<svg xmlns="http://www.w3.org/2000/svg" width="35.124" height="14"><path data-name="Path 631" d="M9.006 4.613l.266.013a1.527 1.527 0 01.218.024l.075.018-.048.016a.238.238 0 01-.106.007l-.089-.011a.118.118 0 01-.046-.012.824.824 0 00-.156-.015c-.152-.006-.218-.016-.229-.034s.04-.012.115-.006zm.283.208a.444.444 0 01-.135.005c-.2-.015-.281-.014-.281 0s-.037.018.395.032c.155 0 .174 0 .1-.035a.089.089 0 00-.079-.004zm-.72-.283a.44.44 0 01.08.012.579.579 0 00.156.023h.1c.073 0 .085-.009.067-.056s-.011-.036-.092-.008a.2.2 0 01-.112.012 2.003 2.003 0 00-.176-.018c-.115-.008-.123-.007-.105.011a.153.153 0 00.082.021zm.228.45a.088.088 0 00-.05.007c-.021.013-.023.013.054.018.032 0 .059 0 .059-.007a.015.015 0 00-.015-.013zm.4-.454a.266.266 0 01.056.008c.021.006.028 0 .028-.013s-.013-.02-.056-.02-.056.005-.056.012.016.011.031.011zm5.048.288c.01 0 .019-.012.019-.018s-.008-.011-.018-.011a.019.019 0 00-.019.018c.003.008.01.013.022.008zm.038-.027l-.009-.029.035.023c.029.019.063.023.207.025a.864.864 0 00.178-.008c.007-.011-.063-.039-.073-.028a1.118 1.118 0 01-.254.007c-.063-.011-.034-.03.042-.027a.28.28 0 00.073 0 1.719 1.719 0 01.306 0s-.012.017-.026.026-.023.018.029.032a8.063 8.063 0 00.843.018 2.5 2.5 0 01.291.011c.06.014.121 0 .121-.036s.014-.024.071-.031a.285.285 0 00.085-.02.623.623 0 01.156 0c.078 0 .18.006.225.005a.2.2 0 01.09.011c.011.018-.06.03-.127.021a.133.133 0 00-.09.011.372.372 0 01-.053.027c-.036.013-.025.03.019.03a.127.127 0 01.063.016 10.9 10.9 0 01-1.213 0 5.09 5.09 0 00-.305-.016c-.134 0-.137 0-.141.028s-.006.029-.117.021a.491.491 0 01-.139-.024.29.29 0 00-.169-.033c-.071-.001-.101-.016-.115-.063zm1.987.051a.145.145 0 00.062.012c.033 0 .039 0 .025-.012a.146.146 0 00-.062-.012c-.029-.003-.036 0-.022.009zm-.16 0c.023.015.111.014.111 0s-.016-.015-.035-.019l-.056-.012c-.025-.008-.039.015-.017.029zm.483.04c-.048 0-.074 0-.074.007s.048.031.124.027h.227c.168 0 .209 0 .21-.03 0-.012-.015-.018-.047-.019h-.147a1.492 1.492 0 00-.15 0 .148.148 0 00-.06.015.2.2 0 01-.08-.002zm-7.146-.315a.275.275 0 01.123.023c.031.016.048.019.051.009a.871.871 0 01.3 0 .3.3 0 00.058.02c.028.007.034 0 .034-.015s-.012-.027-.034-.033a.572.572 0 00-.2-.017h-.131a.422.422 0 01-.068-.014.615.615 0 00-.209-.006c-.036.014.005.031.08.031zm.269.287a1.393 1.393 0 01-.181 0c-.095 0-.109 0-.1.011a.835.835 0 00.314 0c.084-.011.057-.022-.025-.012zm-1.508.112a1.1 1.1 0 00.187.017 1.743 1.743 0 01.2.015c.056.011.092 0 .052-.014a.035.035 0 01-.018-.032c0-.014 0-.026-.009-.026a.266.266 0 00-.14.009.235.235 0 01-.1.014h-.143c-.067.003-.068.003-.025.016zm-.82-.541c.007 0 .009-.006 0-.012a.028.028 0 00-.02-.013c-.007 0-.009.006-.005.013a.027.027 0 00.029.011zm.534.278a.221.221 0 01-.044-.009.038.038 0 00-.041.01c-.016.02.017.028.166.042.071.006.156-.011.139-.029a.283.283 0 00-.149 0 .035.035 0 01-.037 0 .066.066 0 00-.032-.015zm.251-.138a.377.377 0 00.114-.012c.006-.005-.008-.019-.031-.03s-.032-.02-.019-.021.022-.006.022-.013-.026-.012-.059-.012-.054 0-.041.012c.029.019-.007.037-.074.037-.051 0-.054 0-.036.021s.048.018.128.017zm-.681-.046c.048 0 .1.009.126.013a.224.224 0 00.092-.012c.048-.017.057-.017.082 0s.156.027.147 0a.034.034 0 01.013-.033c.011-.009.016-.021.012-.027a.364.364 0 00-.2.008.874.874 0 01-.345.009.715.715 0 00-.227-.019c-.015 0-.028.009-.028.016s.046.024.333.044zm.783.357a1.761 1.761 0 00-.438-.053c-.065.009-.019.023.118.037.301.029.339.031.324.015zm.166-.291a.635.635 0 01.137.024.119.119 0 00.075.006l.035-.01-.035-.014a.425.425 0 00-.167-.032.776.776 0 01-.111-.013c-.024-.006-.042 0-.047 0s.013.029.118.038zm5.53.536c-.01.016.034.025.134.026a1.141 1.141 0 01.168.017 1.63 1.63 0 00.431 0 .062.062 0 01.037-.012c.019 0 .021 0 .01-.015a.4.4 0 00-.215-.021c-.045 0-.189.006-.32 0a1.279 1.279 0 00-.241.004zm-5.538-.618c0-.015-.032-.026-.075-.026-.027 0-.034 0-.029.019s.108.026.108.006zm-.586.42a.255.255 0 00.141.019c.026-.009.025-.01-.01-.018-.054-.015-.154-.015-.127-.002zm5.525-.026c-.014.011-.023.013-.028 0s-.114-.035-.114-.02a.421.421 0 00.183.036s0-.015-.006-.023-.016-.006-.031.007zm-2.624-.254a.077.077 0 01.047.013.438.438 0 00.165.015.9.9 0 01.186.014.11.11 0 00.084 0 .17.17 0 01.109 0 .664.664 0 00.19 0c.168-.014.154-.036-.02-.031a.849.849 0 01-.186-.011.1.1 0 00-.083 0c-.021.011-.033.012-.046 0a1.193 1.193 0 00-.326-.015.574.574 0 01-.1 0 .115.115 0 00-.056 0c-.028.012-.01.019.04.015zm.669.435c-.007.011.052.022.179.031.062 0 .064 0 .031-.01a.477.477 0 00-.203-.021zm-1.5-.378h.044a1.844 1.844 0 01.287.029 1.3 1.3 0 00.193.018 4.486 4.486 0 01.5.037.77.77 0 00.225-.019c0-.005-.029-.012-.065-.016l-.115-.014c-.027 0-.156-.009-.287-.012a2.879 2.879 0 01-.312-.019 2.242 2.242 0 00-.424-.014zm1.881.431a.206.206 0 00.062.011c.029 0 .033 0 .019-.011a.137.137 0 00-.062-.012c-.028 0-.031.002-.011.011zm-.264-.366l-.184-.014a.362.362 0 00-.087 0c-.064.017-.042.029.053.029a.643.643 0 01.13.01.552.552 0 00.216-.009.52.52 0 00-.119-.017zm-1.265.271v-.012a.5.5 0 00-.161-.007.409.409 0 00.169.018zm3.638-.089a.139.139 0 01.1 0c.035.016.118.02.118.005s-.094-.041-.149-.041c-.036 0-.054-.007-.065-.025s-.053-.035-.043-.008a.053.053 0 01-.019.038c-.035.033-.007.046.067.029zm-2.991.026c.022 0 .037-.013.033-.02a.022.022 0 00-.026 0 1.336 1.336 0 01-.2-.011c-.1-.01-.194-.018-.207-.017l-.13-.016-.224-.015c-.062 0-.144-.01-.184-.014s-.072 0-.072 0 .087.039.206.047c.062 0 .154.012.206.019a5.219 5.219 0 00.606.025zm.938-.165c.007 0 .01-.006.005-.012s-.01-.013-.013-.013-.005.006-.005.013a.013.013 0 00.023.013zm-2.013.283c0 .008.012.013.043.013s.05-.006.05-.012-.019-.013-.043-.013a.079.079 0 00-.041.01zm.433.031c.05-.007.059-.011.04-.019a.125.125 0 00-.031-.009l-.056.009c-.033 0-.044.011-.034.018a.188.188 0 00.091 0zm3.282-.228c-.027.027 0 .037.1.039a.907.907 0 01.131.01c.016.005.022 0 .022-.017s-.012-.026-.058-.032a.567.567 0 00-.185-.001zm-.4-.01c.008-.007-.015-.011-.062-.01h-.07l.062.011a.12.12 0 00.078-.002zm-3.12.132c0 .007.008.012.019.012h.019s-.008-.008-.019-.012-.011-.007-.011-.001zm3.158-.226a.157.157 0 01.067.007.13.13 0 00.084 0 .111.111 0 01.073 0c.021.007.19.015.374.02s.348.011.362.015a.042.042 0 00.041-.011c.013-.015.008-.019-.032-.02a2 2 0 01-.284-.024c-.034-.007-.216-.014-.4-.015s-.346-.005-.351-.009a.012.012 0 00-.017.005c-.004.014.067.04.091.031zm-1.058-.15a.428.428 0 00-.2-.007c-.024.01-.023.011.007.019a.416.416 0 00.201-.013zm.148.592c0 .007 0 .013.006.013a.013.013 0 00.013-.012c0-.007 0-.013-.005-.013s-.002.004-.006.011zm.06-.491c.069.016.25 0 .243-.022a.242.242 0 00-.154-.008c-.005.008-.029.01-.061 0-.056-.002-.079.015-.02.029zm-.2-.02c.011-.007.009-.012-.008-.017a.613.613 0 00-.215-.007c-.023.007-.04.014-.037.016a1.218 1.218 0 00.266.007zm-.187.084c0 .02.071.031.208.034.094 0 .131.007.145.022s.052.018.225.015a1.434 1.434 0 01.256.009c.054.015.213 0 .213-.014s-.009-.011-.02-.011a.13.13 0 01-.057-.031c-.039-.033-.066-.039-.079-.019a.041.041 0 01-.032.013c-.013 0-.024-.006-.024-.013s.011-.012.024-.012.022-.006.017-.019.009-.025.029-.005.116-.009.116-.028a.407.407 0 00-.2.006.189.189 0 00-.069.049c-.026.032-.031.033-.107.027-.044 0-.184-.01-.311-.013s-.254-.009-.284-.014-.044-.005-.044.003zM24.311.813a2.039 2.039 0 01.232.107.92.92 0 00.2.069.4.4 0 01.091.036.244.244 0 00.089.025.245.245 0 01.082.02.124.124 0 00.048.017.062.062 0 01.041.029c.012.02.033.03.088.039a.9.9 0 01.215.061c.048.022.139-.011.131-.048a.137.137 0 00-.016-.041.16.16 0 00-.128-.026.534.534 0 01-.3-.1.423.423 0 00-.121-.046.717.717 0 01-.126-.042A3.26 3.26 0 0024.45.78c-.03-.006-.047 0-.047.006s-.019.011-.063 0c-.065-.009-.089.01-.029.027zm1.167.44a.025.025 0 00.024 0s0-.007-.016-.008-.018.004-.008.009zM23.957.771c.053.015.067.015.054 0s-.09-.035-.091-.022.015.017.036.023zm-.773-.418l.094.045a.419.419 0 00.1.037.171.171 0 01.062.021.769.769 0 00.314.072c.01-.013-.031-.029-.089-.034a.112.112 0 01-.061-.022.834.834 0 00-.246-.083.381.381 0 01-.109-.044c-.031-.025-.066-.032-.079-.014s.001.018.013.023zm.063.358a.786.786 0 00-.219-.035.783.783 0 00.1.032l.119.037c.03.013.033-.011-.001-.032zm5.02 1.143c0-.007-.008-.013-.032-.015s-.037 0-.032.006.053.023.062.01zm-21.252 3c-.019.019-.008.027.05.037a4.077 4.077 0 00.427.033 1.564 1.564 0 00.218-.016c.028-.028-.155-.055-.334-.05a1.916 1.916 0 01-.3 0 .13.13 0 00-.063.001zm18.737-3.54h.084a.169.169 0 00.072-.005c.012-.016-.089-.06-.13-.057a.158.158 0 01-.065-.009.056.056 0 00-.054 0c-.015.009-.028.021-.028.027a.256.256 0 00.119.048zm-2.6-.517a.052.052 0 00.031 0c.009 0 0-.006-.015-.007s-.026.008-.018.012zm.511-.161c-.038-.018-.131-.033-.131-.022s.017.017.039.023l.073.021c.032.016.047-.002.016-.017zm-.646-.238c.025.022.092.032.093.014s-.042-.029-.085-.032-.033.003-.011.022zm-.061.238c0-.007-.014-.013-.032-.015s-.029 0-.025.007.053.026.054.013zm-.12-.274c.037 0 .047-.005.049-.025s-.04-.041-.076-.029a.036.036 0 00-.018.03c-.005.026.002.029.042.029zm5.615 1.568a.083.083 0 01.068 0 .853.853 0 00.086.027.2.2 0 01.073.038c.05.046.087.057.128.04s.043-.013.095.015a.168.168 0 00.1.026.134.134 0 01.088.022.4.4 0 00.115.04.934.934 0 01.239.085.258.258 0 00.082.023.076.076 0 01.05.018.139.139 0 00.047.035.076.076 0 00.073.008c.028-.01.038-.007.069.019a.3.3 0 00.105.047.989.989 0 01.112.032.327.327 0 00.08.018.212.212 0 01.138.041.085.085 0 00.045.025.531.531 0 01.091.027l.111.04a.693.693 0 01.079.035.953.953 0 00.121.048.227.227 0 01.121.072c.031.039.049.047.151.072a2.052 2.052 0 00.257.051l.126.008c.092.005.112.01.144.037s.042.028.06.02a.114.114 0 01.06 0c.056.012.011-.01-.133-.066a.667.667 0 00-.2-.052.244.244 0 01-.125-.035.261.261 0 00-.069-.032.074.074 0 01-.039-.027.589.589 0 00-.274-.095.618.618 0 01-.223-.069.452.452 0 00-.067-.023 2.259 2.259 0 01-.22-.064 1.722 1.722 0 00-.1-.037.563.563 0 01-.122-.054.207.207 0 00-.1-.031c-.035 0-.063-.01-.063-.017a.015.015 0 01.016-.012c.009 0 0-.006-.014-.015a.164.164 0 00-.072-.011.161.161 0 01-.068-.009 5.26 5.26 0 00-.5-.157c-.051-.014-.128-.036-.171-.05s-.115-.034-.159-.045a.944.944 0 01-.134-.042.942.942 0 00-.316-.09c-.091-.007-.1-.006-.1.013s.099.073.137.056zM23.23.43c0-.009 0-.016-.02-.017s-.025 0-.023.014a.025.025 0 00.021.017.024.024 0 00.016-.004zm.335.485a.119.119 0 00.044-.027.055.055 0 01.035-.017c.01 0 .018 0 .018-.011s-.015-.014-.035-.015a.537.537 0 01-.113-.033c-.092-.037-.132-.042-.134-.018s-.043.033-.1.027h-.043l.048.027a.785.785 0 00.277.077zm9.3 2.305c0-.012-.027-.029-.05-.031-.007 0-.011.006-.009.015s.06.043.061.026zm-.047.166c.041 0 .048 0 .029-.009s-.08-.021-.081-.006.026.023.058.024zm-.191-.23c.031.018.047.021.058.012s.01-.017 0-.024-.1-.035-.1-.023.021.031.045.045zm-1.656-.586c.033.015.094.018.1 0a.012.012 0 00-.01-.013.127.127 0 01-.027-.007.108.108 0 00-.048 0c-.03.018-.032.02-.012.029zM16.998 4.987c-.011.018.031.033.113.04.151.013.3-.017.165-.034a1.367 1.367 0 00-.275.003zm15.979-1.7V3.27c0-.007-.079-.032-.088-.02s.081.05.091.042zm-.039.173a.044.044 0 00.032.015c.014 0 .022 0 .018-.011a.043.043 0 00-.032-.015c-.01.004-.019.009-.015.016zm-.038-.013c0 .007.008.009.018.006s.02-.008.02-.01-.008-.005-.018-.006-.017.009-.017.015zm-.937-.394a.206.206 0 01-.073-.029.165.165 0 00-.047-.029.136.136 0 01-.045-.03c-.017-.019-.211-.057-.211-.033s.137.058.165.07a.381.381 0 00.068.022.121.121 0 01.048.03.676.676 0 00.249.111.279.279 0 01.1.036c.055.037.165.06.176.036s0-.032-.031-.035a.275.275 0 01-.062-.016l-.146-.057a1.031 1.031 0 01-.122-.053.245.245 0 00-.066-.017zm-.154-.231a1.112 1.112 0 00.277.093c.055-.02-.262-.131-.333-.136-.029.003.06.042.059.048zm.7.461c.007 0 .013-.009.013-.012s0-.006-.012-.007a.013.013 0 00-.013.012c.002.014.007.016.014.013zm-1.24-.618a.894.894 0 01.128.04.413.413 0 00.079.029l.15.044a.187.187 0 00.083.014.349.349 0 00-.151-.062.379.379 0 01-.095-.032.373.373 0 00-.1-.032.437.437 0 01-.1-.031c-.083-.036-.17-.058-.171-.043s.06.048.179.079zm1.164.392c.064.006-.271-.138-.272-.12a.6.6 0 00.274.126zm.061.049s.006-.005.006-.012a.013.013 0 00-.012-.014c-.007 0-.01.005-.006.012s.011.021.014.021zm.156.206c-.017 0-.031 0-.032.01s.013.014.03.015.031 0 .032-.01-.01-.007-.028-.009zM16.268 4.997c-.008-.024-.06-.033-.238-.042a1.112 1.112 0 00-.277 0 1.862 1.862 0 01-.231 0h-.268a1.41 1.41 0 01-.455-.031.249.249 0 00-.08 0 .21.21 0 01-.071 0c-.017-.011-.1.009-.1.024s.042.015.128.016a3.621 3.621 0 01.478.029.579.579 0 00.118.013c.044 0 .128 0 .188.009.119.008.159 0 .159-.027s.018-.018.115-.012a2.4 2.4 0 00.536.028zm1.225-.036c.089 0 .12-.015.072-.033-.027-.01-.027-.011.008-.02a.878.878 0 01.152-.008c.073 0 .115 0 .115-.011a.016.016 0 00-.015-.014l-.075-.01a.2.2 0 00-.064 0 .662.662 0 01-.112 0c-.1 0-.11 0-.143.03a.139.139 0 01-.054.031c-.011 0-.009.006.006.018a.214.214 0 00.113.024zm1.833-.1c-.017 0-.026.007-.021.014a.334.334 0 00.128.013h.286a1.018 1.018 0 00.174-.007c.023-.023-.03-.039-.129-.039a.931.931 0 00-.11 0s-.07.005-.152.008zm-2.54.335a1.09 1.09 0 01-.142.009.281.281 0 00-.142.026c-.047.025-.089.028-.325.023-.053 0-.119.016-.115.029a4.137 4.137 0 00.6.016c.325 0 .724.006.887.011a2.077 2.077 0 00.3 0c0-.02-.076-.026-.3-.027s-.267-.008-.211-.05c.023-.017.025-.023.011-.032a3.954 3.954 0 00-.56.007zm2.805-.433c0-.007-.006-.012-.024-.013a.052.052 0 00-.039.012c0 .007.006.012.023.012a.053.053 0 00.043.001zm-1.249.14a5.034 5.034 0 01.641.035c.035.014.043.013.065-.007a.228.228 0 01.11-.032.648.648 0 00.109-.02c.043-.017-.034-.029-.116-.018a.472.472 0 01-.122 0 .514.514 0 00-.1-.007 1.39 1.39 0 01-.391-.006.41.41 0 00-.2-.019c-.005 0 0 .016 0 .024s.007.018-.007.023-.016.013-.012.02a.019.019 0 00.026.017zM18 4.884a.151.151 0 01.072.013c.014.014.092 0 .092-.012s-.051-.025-.14-.025c-.048 0-.084 0-.084.012s.03.024.063.024zm-.166.363a3.3 3.3 0 00.4-.02c.021-.013 0-.042-.04-.051a.471.471 0 00-.206 0 1.878 1.878 0 01-.271.016c-.182 0-.306.014-.288.032a1.179 1.179 0 00.173.012zM22.81.593a.037.037 0 00.028.015c.018 0 .019 0 0-.012s-.035-.007-.026.009zm-5.9 4.414c.029-.008.05-.016.047-.017a3.96 3.96 0 00-.4-.011c-.1.011-.053.025.117.033a.96.96 0 00.235.007zm-2.545.23a1.734 1.734 0 00.42 0c.005-.008-.01-.013-.039-.014-.2 0-.322-.009-.4-.015a.591.591 0 00-.118 0c-.057.014-.063.02-.031.029a.134.134 0 00.066 0 .243.243 0 01.101.011zm1.261.029c0 .013.074.026.081.014a.015.015 0 000-.017c-.016-.001-.083.001-.083.014zm-.189-.019h-.053c-.004 0 0 .016.02.02.045.012.159.009.159 0s-.018-.013-.041-.013a.63.63 0 01-.086.004zm.338.033c0 .007.025.013.056.013s.056-.006.056-.013-.025-.013-.056-.013-.057.017-.057.024zm-1.6.022c0 .007.009.012.031.013s.036-.005.031-.012a.04.04 0 00-.031-.012.04.04 0 00-.033.022zM21.492.911c0-.015-.014-.022-.08-.034l-.084-.016.04.031c.045.047.117.058.122.03zm-.1.279c-.027.012-.016.029.018.029a.393.393 0 01.113.035c.08.036.13.045.129.023 0-.006-.015-.014-.033-.019a1.177 1.177 0 01-.171-.067.052.052 0 00-.062.01zm-.12-.018c.024.012.041.007.041-.012s-.033-.022-.05-.011-.017.024.002.034zm.882-1.053a.276.276 0 01.069 0 .011.011 0 00.014-.008c0-.012-.024-.023-.145-.054-.037-.01-.08-.022-.095-.028s-.03 0-.036.009a.067.067 0 01-.047.024c-.021 0-.035.008-.033.011a.827.827 0 00.11.032.392.392 0 00.156.025zM21.743.03c.031.009.074 0 .061-.019s-.1-.029-.114-.016-.008.03.047.046zm.433.141a.115.115 0 00.066.009.16.16 0 01.1.02.215.215 0 00.082.027.213.213 0 01.081.025c.047.029.122.014.125-.024 0-.021 0-.024-.034-.02a.313.313 0 01-.107-.02.445.445 0 00-.1-.025h-.122c-.063.008-.101.012-.098.018zm-1.013.641a.27.27 0 00.1.025c.007-.018-.094-.058-.15-.06s-.046.012.043.045zm-.636.37a.029.029 0 000-.027c-.007-.024-.1-.035-.092-.011 0 .028.072.058.089.048zm-1.24.007a.313.313 0 01.077.037.29.29 0 00.107.039h.048l-.033-.021c-.018-.012-.032-.026-.032-.033s-.087-.069-.116-.071a.112.112 0 00-.045.009c-.034.027-.038.048-.014.05zm1.088-.044c.01 0 .019 0 .02-.011s-.007-.013-.018-.014-.019 0-.02.011 0 .024.01.024zm.772 0c.019 0 .021 0 .007-.018a.081.081 0 00-.055-.017h-.039l.032.017a.138.138 0 00.047.024zm-.371-.157c.009 0 0-.006-.015-.008s-.024 0-.016.005a.046.046 0 00.023.008zm.059.042c.043.019.087.026.093.013s-.069-.046-.1-.047-.033.025-.004.039zm.169.042c0-.007-.01-.013-.024-.014s-.023 0-.019.011a.035.035 0 00.025.014c.001.006.009.001.01-.006zM2.558 4.962c0-.007-.01-.012-.013-.012s-.005.006-.005.012a.013.013 0 00.013.013c-.002.005.001 0-.004-.007zm20.669 7.1a2.329 2.329 0 00-.1.056.286.286 0 01-.058.024.128.128 0 00-.09.081c-.009.025-.005.023.061-.03a.271.271 0 01.078-.035.567.567 0 00.177-.1.216.216 0 01.066-.032.064.064 0 00.042-.03.121.121 0 01.034-.043c.05-.041-.009-.023-.067.02a1.414 1.414 0 01-.151.09zm1.522.224c-.01-.008-.028 0-.057.031-.05.051-.044.064.015.036s.056-.048.034-.066zm-.832.561c.041-.092.033-.1-.04-.041-.037.03-.047.047-.047.081s0 .043.007.043c.017.001.049-.033.071-.082zm-1.139-.529a.018.018 0 000 .02c.009.009.033-.007.033-.022s-.032-.014-.042.003zm2.107-.053c.075-.035.088-.05.067-.075s-.034-.022-.068 0-.081.064-.081.087-.005.026.073-.011zm-2.291.166c-.012.007-.022.017-.022.023s.048 0 .057-.012-.02-.023-.044-.01zm1.56.343c.088-.045.112-.066.112-.1a.225.225 0 01.069-.09.522.522 0 00.069-.072c0-.022-.051 0-.087.036a.176.176 0 01-.055.043.361.361 0 00-.168.107.223.223 0 01-.066.062c-.024.012-.034.025-.029.038a.115.115 0 01.007.023c-.01.015.079-.015.14-.046zm-22.809-7.1c.009 0 0-.006-.016-.006s-.024 0-.016.006a.05.05 0 00.024-.002zm23.9 3.7c-.027.013-.038.033-.019.033a.184.184 0 00.047-.025c.035-.024.015-.03-.033-.006zm-.683 1.116c-.012.007-.022.017-.022.024s.047.014.054-.006-.01-.031-.037-.016zm-.4-.131a.18.18 0 00-.058.026c-.029.016-.053.035-.053.042s.024 0 .053-.021c.062-.038.064-.04.057-.045zm.474.092c0-.007 0-.013-.005-.013s-.009.006-.013.012 0 .012.006.012a.013.013 0 00.011-.009zm.113-.524c0-.016-.022-.015-.032 0s-.005.016 0 .02.032-.003.032-.018zm-.288.628c0 .012.009.015.025.011s.022-.012.018-.018-.043-.01-.043.009zm-.051.033a.051.051 0 00-.03.013.37.37 0 01-.053.036c-.042.025-.054.049-.022.049s.081-.027.081-.042a.078.078 0 01.021-.035c.017-.015.017-.019.003-.019zm-.292.143a.5.5 0 00-.086.055c-.023.022-.022.023.031.016a.584.584 0 00.108-.026c.043-.015.053-.025.05-.045-.005-.035-.032-.035-.103.002zm.283-.608c-.037.025-.061.047-.054.05a.328.328 0 00.143-.08c-.006-.018-.023-.013-.089.032zm-.486.727c-.024.023-.018.029.031.029.034 0 .048-.006.051-.022s0-.022-.032-.022a.084.084 0 00-.05.018zm.371-.622c.033-.033.022-.039-.027-.015-.015.007-.028.018-.028.024s.034.015.055-.006zm-.812 1.691c0 .007.005.01.013.006s.012-.01.012-.013-.005.001-.012.001a.013.013 0 00-.013.009zm.208-.1a.212.212 0 00.1-.052c0-.021-.05-.009-.083.02s-.025.034-.016.034zm-.052 0c0 .007 0 .009.012 0s.026-.017.008-.017a.027.027 0 00-.02.019zm-.232-.988c-.019.012-.034.025-.034.031s.037.008.071-.021.016-.04-.037-.007zm.158.291a.019.019 0 000 .02c.009.009.033-.007.033-.022s-.023-.012-.033.004zm.256-.143c-.024.017-.036.031-.027.031.024 0 .089-.036.089-.05s-.014-.012-.061.021zm.842-.987c.029-.033.027-.033-.038 0a.462.462 0 01-.078.035.034.034 0 00-.027.028c0 .015.006.019.022.012l.047-.016c.025-.002.03-.006.074-.057zM12.472 5.883c0-.015 0-.015-.025 0s-.015.012 0 .012.025-.005.025-.012zm-3.421.268c-.011 0-.016.006-.012.013a.014.014 0 00.019.005c.017-.011.014-.018-.008-.018zm.014-.262a.026.026 0 00-.019-.012.027.027 0 00-.019.012c0 .007 0 .013.019.013s.022-.006.018-.013zm.833.39a1.048 1.048 0 01.208-.016c.146 0 .158 0 .093-.012a3.767 3.767 0 00-.464-.016c-.031.012-.014.025.054.042a.168.168 0 00.108.002zm9.952-1.143c-.025-.016-.153-.017-.143 0a.179.179 0 00.085.012c.053.001.07-.003.057-.012zm-18.384.545c-.045-.02-.068-.022-.093-.006s-.016.012-.012.013l.074.005c.064.005.065.005.029-.012zm17.792-.447c0-.008-.023-.012-.077-.011s-.076 0-.048.011c.055.015.115.015.124.001zm3.549-3.6a.115.115 0 00-.056-.021.189.189 0 01-.067-.023.074.074 0 00-.06-.011c-.014 0-.023.009-.019.009l.093.039c.092.04.148.044.108.008zm-1.034-.307a.014.014 0 000-.019c-.01-.015-.081-.014-.081 0s.065.03.08.02zm1.833 3.679c-.01-.016-.044-.016-.069 0s-.006.012.029.012.044-.005.039-.012zm-1.79-.227a.169.169 0 01-.037-.005.129.129 0 00-.044 0c-.017 0-.025.012-.021.023s.065.014.1-.008c.02-.008.02-.01.002-.01zm.223-.009a.261.261 0 01.1-.021c.105 0 .113-.006.084-.019a.1.1 0 00-.031-.01l-.044.005-.1.011c-.043 0-.065.013-.066.024s.025.03.057.01zm-14.395.843c.01-.016-.044-.016-.069 0s-.009.012.021.012a.07.07 0 00.048-.012zm-2.588.855c-.014 0-.022.006-.018.012a.033.033 0 00.026.013c.01 0 .018-.006.018-.013s-.011-.013-.025-.013zm.412.052a.245.245 0 00-.1-.024c-.053-.007-.109-.017-.125-.022s-.028 0-.028.016.011.026.058.033a.437.437 0 00.195-.003zm-.536-.065c-.014 0-.025 0-.025.01s.014.025.032.019.022-.029-.006-.029zm.137.137l-.031.025h.319a.02.02 0 00.019-.013c.005-.016-.038-.024-.183-.035-.08-.001-.096.001-.124.022zm2.119.116a.076.076 0 01.047 0c.042.011.076 0 .076-.017s-.031-.017-.136-.018a.54.54 0 00-.143.009c-.008.013.138.037.157.025zm-2.523-.254c0-.006-.01-.011-.032-.011h-.038s.065.02.071.01zm-.368.041c-.032.009-.039.015-.025.022a1.921 1.921 0 00.317.028.187.187 0 01.068.014.714.714 0 00.194.018.563.563 0 00.129 0 .071.071 0 01-.034-.036c-.016-.034 0-.032-.276-.038-.093 0-.2-.006-.249-.01a.449.449 0 00-.123 0zm2.628.151c0-.018-.045-.013-.062.007s-.012.019 0 .019.061-.015.061-.028zm-.301.067l.025-.007-.025-.01c-.027-.011-.031-.011-.084 0-.019 0-.034.01-.034.015s.078.01.118.002zm-.286-.116c-.01-.016-.032-.016-.056 0s-.009.012.023.012.034-.007.029-.015zm-1.377-.065c0 .007.028.013.063.013s.06 0 .055-.012a.108.108 0 00-.063-.013c-.034-.007-.058.003-.058.01zm.772 0c0-.007-.021-.012-.047-.012s-.042 0-.022.012.066.014.066-.001zm1.362-2.176h.05s-.01-.01-.022-.01a.282.282 0 01-.05-.008h-.028s.02.014.047.017zm-3.7-.275s0-.007-.016-.007-.018 0-.008.008a.025.025 0 00.018-.002zm.522.974c.012 0 0-.006-.022-.006s-.034 0-.022.006a.1.1 0 00.038-.001zm-1.905-.062c.1 0 .156-.012.139-.029a.907.907 0 00-.255-.008c-.024.026.006.035.109.035zm1.63-.894c-.054-.014-.072-.014-.094 0s0 .012.056.011.061-.005.031-.012zm.174.013c.011 0 .017-.006.013-.012s-.01-.012-.012-.012-.008.006-.012.012-.007.013.004.013zm.239.007c.032-.008.033-.01.011-.019a.194.194 0 00-.056-.011c-.028 0-.029 0-.01.019a.05.05 0 00.048.005zm-.222.928c-.024-.016-.053-.016-.044 0a.046.046 0 00.035.012c.016-.002.018-.004 0-.014zm-1.345-.09c0-.007-.021-.012-.047-.013s-.042 0-.028.012.068.015.068-.001zm2.213-.726a.469.469 0 00.24 0c0-.011-.011-.016-.049-.016a1.317 1.317 0 01-.135-.012 1.124 1.124 0 00-.313-.016.457.457 0 00.119.021.7.7 0 01.131.021zm-.892.979a1.736 1.736 0 00.407.056 1.133 1.133 0 01.193.019.241.241 0 00.081.011h.06l-.04-.026a.336.336 0 00-.175-.033.767.767 0 01-.156-.018.088.088 0 00-.064 0 .426.426 0 01-.18-.006c-.166-.021-.177-.022-.134 0zm-.333-.206c.009 0 0-.006-.016-.006s-.024 0-.015.006a.046.046 0 00.023-.001zm-.722-.163c.009 0 0-.006-.016-.006s-.024 0-.016.006a.047.047 0 00.024-.002zm-1.592.143a.883.883 0 01.189.068.087.087 0 00.064.01c.031-.007.041 0 .064.031s.034.037.053.031a.082.082 0 01.052 0 1.267 1.267 0 00.263.047.587.587 0 01.106.018.973.973 0 00.264.029.393.393 0 01.14.02c.01.009.024.012.03.009a.876.876 0 01.244.044.167.167 0 00.071.011.322.322 0 01.091.013.738.738 0 00.144.018.265.265 0 01.149.032 1.281 1.281 0 00.477.052c.024-.013.047-.013.11 0l.144.025a.376.376 0 01.08.02.959.959 0 00.159.021c.079.006.176.016.213.023.125.022.492.064.542.062a.649.649 0 01.118.012c.167.033.278.041.284.022a.635.635 0 00-.24-.051.513.513 0 01-.1-.018 2.15 2.15 0 00-.37-.058.716.716 0 01-.137-.018l-.028-.012.028-.008c.043-.013.026-.036-.029-.041a.17.17 0 01-.061-.014.53.53 0 00-.185-.032 1.1 1.1 0 01-.275-.062.533.533 0 00-.13-.02 1.091 1.091 0 01-.148-.015.222.222 0 00-.123 0c-.029.011-.047.011-.057 0a.459.459 0 00-.133-.016.491.491 0 01-.143-.018.38.38 0 00-.106-.024 1.183 1.183 0 01-.124-.02 7.502 7.502 0 00-.486-.068.587.587 0 01-.082-.012.855.855 0 00-.106-.014c-.037 0-.1-.011-.148-.018s-.131-.017-.193-.021a1.526 1.526 0 01-.187-.025 1.138 1.138 0 00-.2-.018.326.326 0 01-.158-.02.088.088 0 00-.047-.017.535.535 0 01-.085-.005c-.154-.018-.188-.019-.183 0s.036.014.079.015a.657.657 0 01.098.01zm3.68-.4c0-.025-.012-.027-.091-.029a.774.774 0 00-.137.008.606.606 0 01-.1.011c-.063 0-.044.025.026.033l.21.025c.089.011.227.022.307.025.126 0 .148 0 .165-.016s.013-.022-.1-.018a1.962 1.962 0 01-.2 0c-.074-.01-.085-.018-.088-.041zm2.146-.262a.041.041 0 00-.032-.013c-.013 0-.024.006-.024.013s.014.012.032.012.02-.007.016-.014zm-.173.153a.036.036 0 01.025.029.066.066 0 00.069.064c.036 0 .036 0 0-.011s-.025-.011-.018-.012a.385.385 0 01.184-.008c.036.007.047.005.047-.008s-.06-.033-.139-.034a.087.087 0 01-.054-.013c0-.008.033-.013.1-.014h.11l-.094-.01c-.2-.023-.262-.024-.262-.006s.01.017.024.021zm.94.208a.4.4 0 00-.181.009.068.068 0 01-.053 0c-.049-.018-.122-.029-.122-.017a.568.568 0 00.261.038c.08-.007.104-.014.087-.032zm16.272 6c-.017 0-.031.013-.031.019s-.038.012-.045-.008-.034-.023-.059 0-.028.066-.014.079a.179.179 0 00.072-.025l.115-.056a.436.436 0 00.076-.047.417.417 0 01.1-.052c.042-.016.072-.036.07-.045s.02-.049.075-.077.057-.052.021-.057a.138.138 0 00-.062.027.183.183 0 01-.068.031.4.4 0 00-.111.06c-.067.045-.089.068-.1.1a.057.057 0 01-.048.051zM6.64 4.439h.04l-.03-.025c-.03-.026-.114-.034-.114-.012s.048.038.096.037zm.58.222c.015-.024-.135-.038-.166-.015s-.01.017.069.021a.269.269 0 00.089-.006zm-1.708-.335c.089.008.19.015.224.014a.413.413 0 01.117.017c.055.019.093.009.061-.016a.562.562 0 00-.2-.033c-.011 0-.017 0-.015-.009s-.078-.039-.246-.042a1.316 1.316 0 01-.18-.011.119.119 0 00-.073.01.233.233 0 01-.075.019c-.075 0 .01.022.117.029.049.009.172.014.261.023zm.255.341c-.011-.013-.036-.016-.1-.012s-.094 0-.113-.013a.09.09 0 00-.1-.006.445.445 0 01-.109.02.241.241 0 00-.089.017.7.7 0 00.212.032 2.424 2.424 0 01.284.033c.074.015.1.007.048-.015-.018-.008-.029-.02-.025-.026a.03.03 0 00-.017-.029zm.274-.1a.208.208 0 00.087.017.289.289 0 01.09.013.376.376 0 00.2.015c.018-.03-.02-.044-.122-.046-.056 0-.144 0-.2-.009-.086-.005-.092-.004-.064.012zm.187-.187l.031.009a.925.925 0 00.112.015c.08.007.085.006.063-.011a.1.1 0 00-.05-.019.321.321 0 01-.088-.029.171.171 0 00-.093-.022c-.061.016-.048.047.021.06zm-.131.392l.323.033a.979.979 0 00.374 0 .709.709 0 00-.249-.045 1.145 1.145 0 01-.2-.015.577.577 0 00-.218-.011.594.594 0 01-.125 0c-.05 0-.065 0-.056.008a.563.563 0 00.143.033zm1.224-.089c.012 0 0-.006-.022-.006s-.034 0-.022.006a.1.1 0 00.035.003zm15.389 7.271c-.07.048-.107.083-.1.093s.025-.008.049-.023a1.333 1.333 0 01.19-.12 1.044 1.044 0 00.117-.071l.159-.105c.028-.019.073-.046.1-.061s.118-.068.2-.119a1.689 1.689 0 01.193-.106.156.156 0 00.054-.028.456.456 0 01.087-.051.556.556 0 00.146-.109.542.542 0 01.143-.107.378.378 0 00.09-.055c.03-.037-.023-.025-.13.029a2.742 2.742 0 00-.149.079c-.135.079-.27.159-.343.2a7.141 7.141 0 01-.187.108c-.249.138-.267.15-.276.192a.147.147 0 01-.013.043l-.048.035a.464.464 0 01-.107.053.252.252 0 00-.088.047.659.659 0 01-.096.079zm.251-.536c0-.016-.012-.015-.061.01s-.054.049-.016.042.068-.034.068-.049zM4.481 5.113c-.009-.015-.094-.013-.094 0 0 .006.023.01.05.01s.048-.01.044-.01zm.528.661c0 .007.011.013.026.013s.022-.006.018-.013a.033.033 0 00-.026-.013c-.01-.004-.018.002-.018.009zm-1.042.139a.309.309 0 00.125.032l.163.015a.4.4 0 01.093.017 1.042 1.042 0 00.3.016c0-.007-.038-.016-.084-.021-.074-.007-.2-.024-.5-.07-.128-.016-.14-.014-.097.011zm31.061-.819c-.009.086-.129.171-.2.2.079.02.161.085.117.167s-.132.132-.111.154c.036.038-.142.241-.173.261a.356.356 0 00-.085.1c0 .006-.564.343-.641.413a.952.952 0 01-.18.126c-.115.08-.234.17-.322.24a.552.552 0 01-.091.065.079.079 0 00-.033.023c-.012.013-.073.06-.135.106s-.135.1-.162.123l-.175.136-.2.152a.407.407 0 01-.082.056.148.148 0 00-.048.039.682.682 0 01-.093.077 1.082 1.082 0 00-.075.054c-.056.049-.14.116-.2.16-.085.062-.083.06-.147.112a68 68 0 01-.808.606l-.112.083-.155.114-.112.084c-.084.065-.184.141-.212.16s-.059.044-.094.072a1.077 1.077 0 01-.112.08 1.032 1.032 0 00-.108.077.271.271 0 01-.072.047.36.36 0 00-.083.062.385.385 0 01-.081.062.2.2 0 00-.059.042.51.51 0 01-.08.059 1.78 1.78 0 00-.247.174.551.551 0 01-.09.068c-.032.02-.092.061-.133.092s-.116.082-.167.115-.109.073-.129.09a.146.146 0 01-.047.031 1.653 1.653 0 00-.16.1 2.653 2.653 0 01-.2.125.145.145 0 00-.057.044.131.131 0 01-.053.042.77.77 0 00-.1.067 4.54 4.54 0 01-.23.175 2.174 2.174 0 01-.239.156.333.333 0 00-.067.043 2.208 2.208 0 01-.306.2.173.173 0 00-.049.037.078.078 0 01-.039.026.051.051 0 00-.031.019 1.229 1.229 0 01-.2.13.4.4 0 00-.065.044c-.031.023-.1.07-.15.1l-.2.133a3.44 3.44 0 01-.184.112 1.065 1.065 0 00-.114.069 1.341 1.341 0 01-.222.12.179.179 0 00-.074.057.631.631 0 01-.185.131.418.418 0 00-.07.043.278.278 0 01-.077.044.16.16 0 00-.059.037.206.206 0 01-.052.037.352.352 0 00-.067.042 1.193 1.193 0 01-.108.069 2.838 2.838 0 00-.242.153.767.767 0 01-.1.059.2.2 0 00-.049.031.2.2 0 01-.05.031.071.071 0 00-.029.017 1.2 1.2 0 01-.119.07 1.3 1.3 0 00-.119.068.855.855 0 01-.1.057 1.181 1.181 0 00-.21.115 1.314 1.314 0 01-.139.081c-.174.091-.27.143-.368.2-.048.028-.127.071-.174.1a.655.655 0 00-.094.055.886.886 0 01-.112.062.569.569 0 00-.11.064c0 .006-.015.011-.029.011a.145.145 0 00-.064.028 1.232 1.232 0 01-.183.1.328.328 0 00-.075.049.335.335 0 01-.087.051.75.75 0 00-.1.051.209.209 0 01-.062.029.114.114 0 00-.047.029.6.6 0 01-.1.066c-.038.02-.111.062-.162.093a1.19 1.19 0 01-.152.077.224.224 0 00-.073.039c-.015.018-.062.025-.062.01a.648.648 0 01.088-.108c.063-.067.081-.083.094-.083a.088.088 0 00.041-.028.458.458 0 01.142-.113 1 1 0 00.21-.163.884.884 0 01.349-.245l.237-.115a.733.733 0 00.094-.061.362.362 0 01.072-.046.185.185 0 00.05-.03.262.262 0 01.077-.038.163.163 0 00.053-.022 1.469 1.469 0 01.212-.115.273.273 0 00.091-.056c0-.007.01-.012.022-.012a.116.116 0 00.052-.021.49.49 0 01.165-.079.154.154 0 00.074-.055.252.252 0 01.1-.072.126.126 0 00.072-.052.128.128 0 01.068-.051.221.221 0 00.062-.03.107.107 0 01.059-.013.113.113 0 00.083-.034.446.446 0 01.074-.054.2.2 0 00.072-.094.2.2 0 01.084-.1c.047-.027.064-.066.036-.083s-.081.006-.15.05a.279.279 0 01-.093.043.221.221 0 00-.088.053c-.051.044-.057.047-.038.018a.34.34 0 01.173-.147c.061-.014.083-.029.1-.069a.072.072 0 01.033-.037.482.482 0 00.076-.049.241.241 0 01.068-.041.123.123 0 00.046-.025.135.135 0 01.07-.025.315.315 0 00.135-.065c.054-.036.118-.076.142-.09a.188.188 0 00.074-.082.184.184 0 01.072-.08c.076-.041.09-.142.023-.168a.141.141 0 00-.141.045.1.1 0 01-.05.031.1.1 0 00-.049.03.306.306 0 01-.187.081c-.036 0-.053.006-.062.024a.458.458 0 01-.089.081c-.06.045-.086.057-.125.057s-.061.011-.129.068a.468.468 0 01-.094.068.363.363 0 00-.146.083.2.2 0 01-.077.05.61.61 0 00-.1.054.117.117 0 01-.059.024.05.05 0 00-.037.013.385.385 0 01-.087.051.764.764 0 00-.139.09.384.384 0 01-.113.067.288.288 0 00-.088.044.285.285 0 01-.081.044.315.315 0 00-.1.069.3.3 0 01-.186.1.423.423 0 00-.146.08c-.073.058-.08.061-.155.062a.712.712 0 00-.3.067c-.049.017-.077.021-.085.012s.008-.019.051-.033a1.122 1.122 0 00.168-.082.8.8 0 01.118-.062.033.033 0 00.023-.016.36.36 0 01.153-.083.5.5 0 00.192-.1.136.136 0 01.064-.033c.031-.006.044-.016.049-.038a.1.1 0 01.054-.054 2.162 2.162 0 00.313-.179.2.2 0 01.056-.035 1.627 1.627 0 00.224-.128.3.3 0 01.071-.04.173.173 0 00.056-.031.834.834 0 01.112-.068.987.987 0 00.106-.061c.032-.027.223-.156.231-.156a.211.211 0 00.048-.04 1.684 1.684 0 01.332-.219.623.623 0 00.1-.066.5.5 0 01.087-.059.9.9 0 00.1-.065.561.561 0 01.1-.059.309.309 0 00.09-.062.239.239 0 01.078-.053.109.109 0 00.064-.06.226.226 0 01.115-.1.8.8 0 00.141-.108c.045-.043.018-.178-.036-.179-.032 0-.016-.031.034-.066s.057-.053.02-.076c-.016-.01-.033-.007-.071.015a1.153 1.153 0 01-.2.1 1.218 1.218 0 00-.283.165 1.037 1.037 0 01-.128.078.166.166 0 00-.049.032.631.631 0 01-.087.059 2.705 2.705 0 00-.369.248.917.917 0 01-.2.152 5.61 5.61 0 00-.3.193.611.611 0 01-.24.115.5.5 0 00-.239.113.1.1 0 01-.045.032.253.253 0 00-.07.037c-.068.046-.161.054-.161.013a.041.041 0 01.013-.032c.015-.009.016-.056 0-.079a.053.053 0 00-.037-.018c-.037 0-.034-.017.007-.032a.193.193 0 00.1-.1.245.245 0 01.063-.068l.1-.072a.2.2 0 01.081-.04.082.082 0 00.051-.026.356.356 0 01.083-.056.167.167 0 00.059-.04.227.227 0 01.072-.046.632.632 0 00.132-.095.379.379 0 01.1-.074.1.1 0 00.058-.053.187.187 0 01.074-.069c.031-.018.1-.062.154-.1a.451.451 0 01.142-.072c.059-.008.115-.029.115-.043a.486.486 0 01.116-.067.486.486 0 00.142-.091.253.253 0 01.074-.06l.141-.072a1.262 1.262 0 00.156-.095.8.8 0 01.107-.068.409.409 0 00.076-.048.343.343 0 01.072-.043c.022-.009.039-.021.039-.027s.008-.011.018-.011a.529.529 0 00.179-.159.058.058 0 00-.024-.032c-.017-.011-.042 0-.125.058s-.112.071-.161.071a.1.1 0 00-.092.036.173.173 0 01-.066.044.338.338 0 00-.077.036.959.959 0 01-.117.057.171.171 0 00-.1.071.134.134 0 01-.047.051.619.619 0 00-.081.049.323.323 0 01-.07.041.047.047 0 00-.026.017.325.325 0 01-.1.044.34.34 0 00-.094.038.037.037 0 01-.029.012.194.194 0 00-.069.033c-.047.032-.049.032-.085.011a.345.345 0 00-.113-.029.4.4 0 01-.113-.025c-.032-.016-.042-.016-.093 0a.516.516 0 00-.083.038c-.034.023-.094.022-.094 0s.021-.032.047-.048c.06-.038.082-.065.073-.089s-.029-.024-.1.012c-.114.057-.142.029-.035-.037a.766.766 0 00.1-.073.369.369 0 01.069-.051.1.1 0 00.041-.043.434.434 0 01.183-.118.053.053 0 00.04-.039.057.057 0 01.031-.038.161.161 0 00.047-.029.754.754 0 01.078-.056.2.2 0 00.06-.052.289.289 0 01.073-.061c.064-.042.081-.064.082-.1s-.028-.022-.081.014c-.03.02-.05.027-.055.019s-.091.027-.11.066-.023.033-.072.031a.1.1 0 00-.1.043.293.293 0 01-.09.065l-.073.03-.044.018a.238.238 0 00-.046.026c-.017.012-.03.015-.034.007s.006-.02.022-.029a3.378 3.378 0 00.284-.2.712.712 0 01.128-.067.372.372 0 00.106-.06.4.4 0 01.2-.133.323.323 0 00.1-.068.6.6 0 01.211-.131.423.423 0 00.1-.074.436.436 0 01.117-.082.47.47 0 00.18-.1 2.593 2.593 0 01.259-.2c.036-.024.063-.049.059-.055s-.035-.014-.081.017a.438.438 0 01-.086.043.378.378 0 00-.085.047.309.309 0 01-.084.044.408.408 0 00-.1.054.752.752 0 01-.1.062.361.361 0 00-.084.059.174.174 0 01-.068.043.057.057 0 00-.034.015.336.336 0 01-.069.042.521.521 0 00-.108.101.159.159 0 01-.106.051.281.281 0 00-.116.046c-.053.037-.095.042-.082.009a.5.5 0 01.083-.078c.042-.034.1-.083.123-.109a.983.983 0 01.1-.087 1.711 1.711 0 00.192-.167.219.219 0 01.074-.053.133.133 0 00.055-.031.142.142 0 01.051-.031c.008 0 .023-.014.034-.031a.1.1 0 01.053-.039.2.2 0 00.072-.047c.022-.021.069-.062.106-.091.15-.118.22-.23.3-.284a1 1 0 00.085-.062.538.538 0 01.068-.048c.03-.019.167-.184.217-.216s.115-.077.143-.1l.146-.111c.052-.038.107-.083.123-.1a.109.109 0 01.042-.029.359.359 0 00.079-.057 1.268 1.268 0 01.2-.143 1.239 1.239 0 00.191-.187c0-.025-.046-.026-.265-.005-.125.011-.283.023-.352.026-.126.005-.616.036-.766.048l-.156.012c-.477.035-.719.05-1.093.065a2.933 2.933 0 00-.269.018 1.044 1.044 0 01-.153.012c-.427.016-.83.034-1.27.055-.56.027-.882.039-.99.038-.041 0-.142 0-.224.01-.19.014-.661.027-.816.023h-.137l-.38.012-.6.017c-.589.017-1.077.021-2.367.02-1.333 0-1.852-.009-2.1-.033a1.393 1.393 0 00-.23 0 4.205 4.205 0 01-.539-.007l-.336-.013c-.144 0-.349-.013-.455-.019s-.217-.008-.247 0a1.526 1.526 0 01-.206-.009c-.083-.008-.3-.017-.486-.021s-.34-.01-.345-.014a1.367 1.367 0 00-.169-.007.745.745 0 01-.173-.013 3.494 3.494 0 00-.4-.019 2.443 2.443 0 01-.576-.031.143.143 0 00-.072-.006 1.448 1.448 0 01-.252 0s-.091-.008-.194-.013c-.244-.011-.4-.02-.542-.032a.826.826 0 00-.126-.006 1.609 1.609 0 01-.18-.014c-.095-.01-.237-.022-.316-.026s-.2-.014-.261-.022a1.363 1.363 0 00-.15-.011 4.683 4.683 0 01-.6-.057.321.321 0 00-.189-.006.365.365 0 01-.139 0 8.1 8.1 0 00-.509-.042c-.058 0-.151-.011-.207-.019-.1-.014-.693-.061-.9-.071a3.57 3.57 0 01-.386-.045 3.271 3.271 0 00-.231-.026l-.417-.037c-.075-.007-.187-.016-.249-.019s-.155-.012-.207-.018-.175-.018-.274-.026a6.33 6.33 0 01-.5-.053c-.041-.007-.153-.018-.249-.024s-.256-.022-.355-.037-.22-.03-.268-.034l-.118-.011-.125-.012c-.051 0-.113-.012-.137-.016l-.044-.008.044-.007c.035-.006.044-.013.047-.038a.133.133 0 00-.013-.062c-.018-.035-.045-.036-.151-.006a.589.589 0 01-.136.018c-.057 0-.081.006-.1.024s-.036.023-.188.012a6.86 6.86 0 01-.343-.037l-.2-.027c-.069 0-.339-.036-.347-.042a1.456 1.456 0 00-.165-.019 2.328 2.328 0 01-.186-.021.7.7 0 00-.1-.012c-.039 0-.132-.013-.206-.025l-.246-.038c-.062-.01-.16-.023-.218-.03s-.14-.018-.181-.025-.126-.018-.187-.025a1.153 1.153 0 01-.131-.019.451.451 0 00-.086-.011c-.038 0-.165-.015-.282-.028-.206-.023-.213-.024-.168-.04a.373.373 0 01.084-.019c.028 0 .038-.009.041-.03s.007-.027.118-.02a3.223 3.223 0 00.475 0c.023-.009.023-.01-.005-.03a.239.239 0 00-.067-.029l-.039-.018h.038a.358.358 0 01.087.013.6.6 0 00.1.018l.165.013c.084.007.12.006.133-.006a.053.053 0 01.045-.007.05.05 0 00.041 0 .246.246 0 01.148.024.117.117 0 00.06 0c.025-.005.043 0 .049.008s.028.013.089 0a.677.677 0 01.254.017.381.381 0 00.056.007c.01 0 .1.011.2.024l.342.043c.089.01.179.022.2.025s.111.012.2.018a.519.519 0 01.2.033.081.081 0 00.066.013.434.434 0 01.238.024.454.454 0 00.125.02.489.489 0 01.126.018 2.565 2.565 0 00.311.039 2.214 2.214 0 01.266.031c.025.023-.039.034-.135.022l-.212-.023a1.544 1.544 0 01-.168-.025.835.835 0 00-.093-.018l-.174-.024a1.462 1.462 0 00-.367-.026.328.328 0 00.148.049.34.34 0 01.1.012l.148.033a.979.979 0 00.122.017.249.249 0 01.122.044c.058.038.071.041.2.046a3.023 3.023 0 00.4 0 .264.264 0 01.106.012.973.973 0 00.186.027 1.754 1.754 0 01.365.042.383.383 0 00.112.016.462.462 0 01.127.019.21.21 0 00.17 0 .124.124 0 01.079-.012.474.474 0 00.211-.042c.011-.01.042-.01.107 0a.746.746 0 00.154.006c.046-.005.059 0 .045.006s-.015.016 0 .027.067 0 .067-.014a.012.012 0 01.012-.012c.007 0 .009.008.005.019s.033.024.1 0a.207.207 0 01.2.02.178.178 0 00.108.037.107.107 0 01.067.018.088.088 0 00.1.017.2.2 0 01.109-.011.258.258 0 00.11-.009c.023-.012.034-.011.061.008s.071.024.22.032c.243.012.244.012.26 0a.676.676 0 01.1-.039.237.237 0 01.163-.013.649.649 0 00.132.012c.064 0 .19.013.18.024a.293.293 0 01-.082.009c-.071 0-.1.01-.084.026a.482.482 0 00.112.007.373.373 0 00.16-.025c.067-.03.1-.032.142-.006a.075.075 0 00.053.013.679.679 0 01.113-.009c.068 0 .1 0 .113.019a.184.184 0 00.152.008c.026-.014.032-.055.01-.069a1.166 1.166 0 00-.316-.043 1.714 1.714 0 01-.231-.021 1.234 1.234 0 00-.173-.019 1.385 1.385 0 01-.156-.011c-.056-.007-.171-.016-.257-.02s-.2-.014-.262-.02a7.432 7.432 0 00-.5-.054c-.169-.006-.172-.007-.218-.047s-.056-.04-.153-.049a5.094 5.094 0 00-.253-.016.751.751 0 01-.17-.02.526.526 0 00-.143-.014.735.735 0 01-.154-.012 1.139 1.139 0 00-.2-.034.2.2 0 01-.07-.018.376.376 0 00-.115-.01.609.609 0 01-.147-.014.251.251 0 00-.095-.009c-.041.005-.052 0-.068-.023a.137.137 0 00-.132-.036.572.572 0 01-.166.017h-.05c-.072 0-.1 0-.122-.018a.3.3 0 00-.139-.019.522.522 0 01-.162-.02.889.889 0 00-.208-.041c-.019 0-.019-.005.005-.045s.024-.049.01-.074-.042-.041-.152-.051c-.043 0-.109-.012-.147-.019s-.144-.018-.237-.025a6.191 6.191 0 01-.473-.05 3.42 3.42 0 00-.218-.025 6.744 6.744 0 01-.486-.058 3.095 3.095 0 00-.206-.024.686.686 0 01-.244-.044.284.284 0 00-.071-.024.049.049 0 01-.032-.017.706.706 0 00-.32-.076.205.205 0 01-.089-.023.641.641 0 00-.283-.067.544.544 0 01-.134-.016.812.812 0 00-.118-.029.292.292 0 01-.091-.026.671.671 0 00-.147-.035 1.1 1.1 0 01-.162-.036.716.716 0 00-.139-.026C.095 5.359.02 5.338.02 5.321a.176.176 0 01.072.009c.061.014.2.04.327.06l.134.018a.616.616 0 01.126.026.687.687 0 00.153.019c.071 0 .163.012.2.018.242.04.258.041.288.021a.118.118 0 01.049-.019c.035 0 .012-.031-.026-.035a.1.1 0 01-.048-.015c-.023-.022.034-.028.112-.012a1.663 1.663 0 00.213.02c.187.006.679.049.726.063.01 0 .1.009.2.013.147.006.182 0 .2-.011a.135.135 0 01.129.009 1.035 1.035 0 00.192.022.471.471 0 01.176.024.55.55 0 00.255.051 1.474 1.474 0 01.33.058c.017.016-.035.023-.095.014a.244.244 0 00-.079 0 1.228 1.228 0 01-.15.018.424.424 0 01-.195-.007c-.04-.014-.062-.015-.079-.006a.154.154 0 01-.061.013c-.027 0-.037.006-.035.022s-.01.023-.042.028c-.065.009-.065.044 0 .055a.253.253 0 01.079.027.125.125 0 00.058.018.469.469 0 01.158.029.171.171 0 00.106 0 .4.4 0 01.228-.007.48.48 0 00.113.018.286.286 0 01.073.008c.031.012.009.031-.026.022s-.031 0-.027.021.016.032.04.038a.219.219 0 01.075.047c.038.035.042.037.219.046a2.359 2.359 0 01.374.032l.125.024a.576.576 0 01.087.023.776.776 0 00.143.021 2.933 2.933 0 01.336.046c.034.006.144.015.243.019a5.307 5.307 0 01.535.033.944.944 0 00.131.012 2.988 2.988 0 01.483.025c.024.009.036.008.047-.006a.072.072 0 01.091 0 .634.634 0 00.145.024 1.177 1.177 0 01.276.037.1.1 0 00.056 0 .973.973 0 01.166.006c.072.007.249.016.393.021a2.563 2.563 0 01.3.02.533.533 0 00.124.011h.1a.36.36 0 00.05 0 .976.976 0 01.245.028.086.086 0 00.063 0 .35.35 0 01.2.005.052.052 0 00.054 0 .075.075 0 01.044-.007.1.1 0 00.053-.011.6.6 0 01.267.018 1.507 1.507 0 00.375.033.287.287 0 01.108.007.085.085 0 00.084-.006.144.144 0 01.109-.008.5.5 0 00.114.007 1.573 1.573 0 01.206-.006 1.88 1.88 0 01.407.029.448.448 0 00.22 0 .09.09 0 01.07 0 .092.092 0 00.059 0 .193.193 0 01.072-.011.169.169 0 00.1-.028c.07-.048.067-.08-.019-.166a.839.839 0 00-.5-.106.6.6 0 01-.131-.01 1.743 1.743 0 00-.355-.035 1.376 1.376 0 01-.2-.018.745.745 0 00-.145-.013 1.545 1.545 0 01-.205-.018.56.56 0 00-.12-.012.187.187 0 01-.076-.019 2.393 2.393 0 00-.54-.047.778.778 0 01-.124-.01 2.127 2.127 0 00-.218-.015c-.1 0-.225-.011-.287-.018-.335-.034-.755-.074-.915-.085s-.342-.029-.586-.055l-.411-.045c-.03 0-.126-.012-.211-.019s-.2-.018-.249-.024l-.261-.028a1.651 1.651 0 01-.314-.035c.037 0 .03-.029-.011-.042-.016-.005.006-.006.051 0s.092.008.106.007a1.108 1.108 0 01.312.012c.034.006.18.023.324.038.327.033.324.033.386.042s.113-.007.123-.048.013-.032.048-.026c.052.009.29.029.526.045.1.007.205.016.228.021.049.01.046.036 0 .036-.024 0-.036.006-.036.018s.024.021.1.028c.107.009.151 0 .151-.033 0-.011.02-.02.053-.025a.65.65 0 00.092-.022.618.618 0 01.289.034c.015.013.049.018.12.018a2.445 2.445 0 01.436.017c.123.035.14.048.092.074s-.011.034.132.043c.075 0 .145.01.156.013a1.24 1.24 0 00.3.008c0-.008 0-.013-.015-.013a.091.091 0 01-.047-.02c-.023-.018-.021-.019.026-.013.027 0 .1.011.167.016.107.008.114.01.081.024s-.03.017-.017.021a2.2 2.2 0 00.373.047l.579.044c.4.031 1.053.071 1.306.077.143 0 .271.01.286.013s.1.009.189.013l.212.011c.044 0 .409.008.712.007a.342.342 0 01.131.017.883.883 0 00.372-.008c.019-.017.046-.019.157-.015l.459.012c.3.006.38 0 .38-.027s-.052-.037-.331-.044c-.4-.01-.4-.01-.416-.064s-.034-.061-.112-.074a.317.317 0 01-.068-.017 2.063 2.063 0 00-.237-.01c-.124 0-.292-.006-.374-.009-.216-.01-.478-.023-.536-.027l-.1-.005c-.048 0-.053-.005-.053-.033a.034.034 0 00-.031-.039.1.1 0 00-.049 0 1.18 1.18 0 01-.178-.005l-.453-.032-.156-.011c-.034 0-.1-.006-.151-.006h-.089l-.006-.039-.005-.039.2.008c.11 0 .293.015.406.022.245.017.315.02.642.031l.268.01c.043 0 .062 0 .062-.021 0-.033-.064-.054-.181-.057l-.156-.007-.218-.011-.355-.019-.212-.011c-.017 0-.07 0-.119-.008l-.274-.019-.206-.014c-.01 0-.1 0-.193-.007s-.272-.014-.392-.026-.254-.023-.3-.026l-.243-.019a8.282 8.282 0 00-.274-.02c-.1 0-.153-.008-.38-.026-.044 0-.1-.01-.125-.014a1.063 1.063 0 00-.124-.01 3.092 3.092 0 01-.407-.034 1.914 1.914 0 00-.255-.016 1.024 1.024 0 01-.272-.025.9.9 0 00-.255-.023.84.84 0 01-.249-.022.611.611 0 00-.145-.024.661.661 0 01-.125-.015.763.763 0 00-.15-.012.921.921 0 01-.23-.031.907.907 0 00-.229-.032.262.262 0 01-.134-.02c-.015-.011-.033-.016-.039-.013a2.229 2.229 0 01-.381 0c-.048-.005-.135-.017-.193-.027s-.176-.024-.261-.032a1.042 1.042 0 01-.178-.026.073.073 0 00-.038-.009.434.434 0 01-.14-.039.366.366 0 00-.093-.018.446.446 0 01-.152-.045.324.324 0 00-.109-.037.194.194 0 01-.072-.017.686.686 0 00-.3-.059c0 .007.01.013.023.013a.1.1 0 01.047.018c.023.017.023.018-.011.031a.525.525 0 01-.227 0 2.352 2.352 0 00-.224-.026c-.179-.015-.2-.021-.245-.064-.02-.02-.036-.024-.079-.02a.12.12 0 01-.089-.017.184.184 0 00-.085-.024.352.352 0 01-.1-.02 1.325 1.325 0 00-.087-.03.482.482 0 01-.078-.032.111.111 0 00-.072-.014.1.1 0 01-.059-.008.444.444 0 00-.127-.019c-.055 0-.124-.006-.154-.009a.664.664 0 00-.13 0c-.063.009-.081.007-.1-.009s-.034-.018-.119-.005a.776.776 0 01-.159.008 3.882 3.882 0 01-.321-.04c-.051-.016-.013-.027.119-.033a1.754 1.754 0 00.234-.027.909.909 0 01.267-.012c.1 0 .2.013.23.019a.641.641 0 00.076.012 1.4 1.4 0 01.282.053c.039.024.161 0 .156-.029s.03-.041.066-.022a.149.149 0 00.09.007 2.5 2.5 0 01.441 0c.012.007-.01.011-.061.011-.067 0-.078 0-.075.021s.029.027.086.041a.387.387 0 01.1.034.2.2 0 00.067.024.416.416 0 01.093.031 1.366 1.366 0 00.4.045.679.679 0 01.115.012c.01.006.292.034.348.034s.386.037.426.049a.483.483 0 00.107.012 1.18 1.18 0 01.153.014.213.213 0 00.141-.006.782.782 0 01.351.007 2.332 2.332 0 01.409.068.77.77 0 00.154.031c.06.007.149.018.2.026a.721.721 0 00.224.008 1.333 1.333 0 01.529.037 4.245 4.245 0 00.866.037c.144 0 .287.007.318.013s.123.012.206.015a1.363 1.363 0 01.41.037.99.99 0 00.333.032.342.342 0 01.1-.011c.064 0 .085 0 .108-.027a.094.094 0 01.08-.024h.064l.072-.009c.074-.009.149 0 .142.025s-.021.018-.041.022c-.036.007-.035.007.013.016s.331.028.592.041c.39.019.665.034.816.045.1.007.267.015.38.019s.228.009.255.012.151.009.274.013l.735.026c.14.005.169 0 .211-.017s.078-.022.107.013.065.03.312.018a1.09 1.09 0 00.222-.025c.046-.019.094-.008.107.025.005.015.023.02.067.02.232 0 .991.014 1.087.021a3.283 3.283 0 00.514-.005.319.319 0 01.16.006 2.761 2.761 0 00.545.015c.272 0 .5-.007.512-.013a.408.408 0 01.107-.015c.07 0 .093 0 .106.015s.086.024.131-.005a.227.227 0 01.181-.011.818.818 0 00.217.025c.076 0 .13-.068.069-.084-.014 0-.025-.012-.025-.018a1.793 1.793 0 01.43-.008c.329 0 .388 0 .424-.046l.025-.03.461-.007c.565-.009.5-.009.717 0a1 1 0 00.2 0 .055.055 0 01.043 0 .211.211 0 00.095-.008.19.19 0 01.112 0 .2.2 0 00.093 0 .745.745 0 01.137-.009.308.308 0 00.118-.015.364.364 0 01.163-.031.159.159 0 01.109.019c.022.013.04.029.04.034 0 .021-.056.043-.135.053a1.221 1.221 0 00-.251.048.164.164 0 01-.056.02c-.06.014-.071.051-.014.047a.112.112 0 00.053-.017.851.851 0 01.214-.017 2.3 2.3 0 00.239-.013c.039-.009.041-.011.02-.026s-.02-.017.011-.029.141-.017.124 0a.092.092 0 01-.048.016c-.019 0-.037.008-.04.015s.063.043.093.043.078-.059.078-.092 0-.033.053-.033a.4.4 0 01.112.021c.057.021.062.02.152-.006.073-.021.1-.024.123-.014a.064.064 0 00.066 0 .443.443 0 01.126-.025.437.437 0 00.128-.027.4.4 0 01.117-.027c.074-.007.079-.006.1.025s.028.031.057.025a.247.247 0 01.1.015.236.236 0 00.147.008c.045-.008.137-.016.2-.02a.805.805 0 00.134-.013c.006 0 .142-.012.3-.018a1.726 1.726 0 00.344-.031.5.5 0 01.193-.012l.151.008c.007 0 .063-.006.125-.014a1.371 1.371 0 01.167-.014.132.132 0 00.1-.031.175.175 0 01.124-.035c.057 0 .085 0 .1.015.048.058.048.058.138.05l.331-.021a1.879 1.879 0 00.273-.028.155.155 0 01.044-.015l.084-.011c.056-.008.076-.006.1.01a.108.108 0 00.079.014c.027 0 .149-.012.273-.018a2.181 2.181 0 00.262-.023 1.888 1.888 0 01.189-.033c.125-.017.158-.018.19-.005a.7.7 0 00.306-.019.132.132 0 01.078-.01.088.088 0 00.057 0 .412.412 0 01.2-.017.69.69 0 00.29-.016c0-.018-.036-.033-.159-.063a.737.737 0 00-.328.006.125.125 0 01-.094-.008.279.279 0 00-.227 0 .379.379 0 01-.168.034c-.063 0-.139.009-.168.013s-.09.009-.135.011-.178.013-.3.023a2.656 2.656 0 01-.588.024.438.438 0 00-.216-.015.177.177 0 01-.067.023 3.228 3.228 0 00-.139.03c-.079.019-.089.019-.131 0a1.093 1.093 0 00-.4-.011c-.04 0-.047.007-.054.039-.011.052-.035.069-.071.049a.6.6 0 00-.2-.014c-.138 0-.173 0-.2-.018a.259.259 0 00-.111-.024.177.177 0 01-.1-.025c-.019-.017-.03-.019-.058-.008a.883.883 0 01-.3.012 1.345 1.345 0 00-.331 0c-.024.005-.033.013-.029.026s0 .018-.007.018-.014-.01-.014-.022 0-.018-.01-.006-.094.032-.147.014a.508.508 0 00-.258 0 .814.814 0 01-.438 0c-.117-.019-.176-.026-.159-.019a.028.028 0 01.016.022c0 .011-.048.014-.178.01l-.42-.007H21.6v.029c0 .027 0 .028-.071.026a.188.188 0 00-.09.012.041.041 0 01-.035.008c-.02-.007-.386-.03-.628-.039l-.277-.012c-.11-.006-.116 0-.149.025a.071.071 0 01-.072.024c-.021 0-.1-.01-.181-.014l-.23-.014a1.48 1.48 0 00-.218-.006h-1.311a.242.242 0 00-.094.017 1.113 1.113 0 01-.346.013c-.171 0-.347-.01-.392-.015-.137-.017-.083-.035.106-.036.1 0 .194 0 .218-.009s.159-.011.3-.015a2.355 2.355 0 00.349-.027.991.991 0 01.387 0 2.3 2.3 0 00.628-.011c.029-.019.055-.02.228-.012a.592.592 0 01.208.025 1.016 1.016 0 00.33 0c.031 0 .075-.01.1-.011.047 0 .072-.022.058-.044s-.026-.012-.059-.007c-.062.01-.134 0-.134-.024s.027-.016.1-.017a.484.484 0 00.24-.038.217.217 0 01.117-.022c.073 0 .086 0 .091.022s.02.023.188.019.255-.007.7-.024c.086 0 .228-.006.315-.006.142 0 .162 0 .184-.025s.047-.033.236-.048c.124-.01.145-.009.158.008s.024.017.087 0a1.162 1.162 0 01.187-.016c.092 0 .118 0 .131.019a.125.125 0 00.152 0 .227.227 0 01.087-.029.1.1 0 00.057-.019c.015-.014.055-.019.163-.019h.186a.839.839 0 00.121-.007.24.24 0 01.094 0 .184.184 0 00.131-.009.662.662 0 01.146-.015c.112 0 .124 0 .123.018s.037.029.113 0a1.511 1.511 0 01.347-.022c.161 0 .3-.007.3-.012a.461.461 0 01.108-.009c.075 0 .1 0 .12.021s.028.021.088 0a.485.485 0 01.079-.02.214.214 0 00.057-.021.565.565 0 01.217-.024 1.918 1.918 0 00.242-.016.551.551 0 01.245 0c.01.016.062.01.18-.02a1.082 1.082 0 01.227-.02 6.067 6.067 0 001.189-.1c.2-.063.063-.032-.074-.092a1.641 1.641 0 00-.271-.087c-.135-.028-.973-.3-1.7-.546-.56-.186-1.055-.409-1.114-.428a6.413 6.413 0 00-.22-.067 3.947 3.947 0 01-.427-.156 1.493 1.493 0 00-.152-.047c-.09-.024-.2-.083-.539-.185a2.674 2.674 0 01-.2-.066.228.228 0 00-.064-.018 1.031 1.031 0 01-.143-.042l-.203-.082-.122-.039-.152-.049c-.074-.023-.164-.054-.2-.068s-.133-.047-.213-.073-.157-.053-.171-.059-.109-.04-.213-.074-.227-.078-.274-.1-.106-.044-.133-.054a.224.224 0 01-.06-.029.071.071 0 00-.038-.013c-.031 0-.049-.023-.053-.06 0-.018-.017-.029-.052-.04a.559.559 0 01-.252-.14.192.192 0 00-.06-.054.462.462 0 01-.091-.05.446.446 0 00-.142-.062.368.368 0 01-.2-.094.078.078 0 00-.082-.029.164.164 0 01-.1-.025.351.351 0 00-.065-.03c-.007 0-.013-.014-.014-.029 0-.04-.153-.1-.209-.089a.169.169 0 01-.141-.055l-.046-.043c-.043-.04-.022-.069.043-.059.046.007.053.012.062.05a.113.113 0 00.031.056c.029.019.071.007.073-.022s.029-.04.055-.005.063.056.081.028.03-.029.071.012.047.035.175.049a1.416 1.416 0 01.2.034l.128.041.183.063c.06.021.137.045.17.052a.479.479 0 01.1.033c.021.011.07.032.11.047l.121.048a1.8 1.8 0 00.183.054 1.933 1.933 0 01.228.074.621.621 0 00.14.043.485.485 0 01.126.039 1.449 1.449 0 00.152.056l.122.035.146.046.22.069c.067.021.152.051.189.066a1.112 1.112 0 00.152.049c.048.011.127.034.178.051a1.191 1.191 0 00.159.041.464.464 0 01.1.025.6.6 0 00.1.029c.05.01.074.021.081.039s.024.025.053.027a.913.913 0 01.231.069.513.513 0 00.116.032.38.38 0 01.085.018c.073.027.14-.018.082-.055a.075.075 0 01-.029-.039c-.007-.031-.064-.056-.141-.062a.216.216 0 01-.1-.032.892.892 0 00-.278-.092.586.586 0 01-.116-.039 6.206 6.206 0 00-.608-.2c-.047-.014-.127-.04-.177-.058s-.121-.042-.159-.053l-.293-.1c-.124-.041-.235-.075-.247-.077s-.028-.018-.036-.038c-.024-.057-.073-.079-.243-.108a.8.8 0 01-.135-.033 1.6 1.6 0 00-.287-.082c-.071-.012-.084-.019-.114-.059a.172.172 0 00-.1-.063c-.034-.01-.1-.032-.137-.048a.57.57 0 00-.108-.032c-.055 0-.1-.042-.1-.079a.1.1 0 00-.016-.057c-.011-.014-.016-.026-.013-.029a.325.325 0 01.078.023c.08.03.215.076.4.136l.244.081.244.081a.489.489 0 00.266.039c.012-.009.033-.006.076.013a.425.425 0 00.257.034c.025-.021.06-.015.234.041a1.159 1.159 0 00.156.042.229.229 0 01.075.023 1.272 1.272 0 00.427.108.992.992 0 01.358.072.321.321 0 00.17.029c.1 0 .115 0 .116-.021s-.051-.078-.086-.081a1.3 1.3 0 01-.142-.037l-.171-.05a1.707 1.707 0 01-.1-.031l-.14-.048a1.332 1.332 0 01-.142-.055.252.252 0 00-.077-.025.411.411 0 01-.11-.046.331.331 0 00-.142-.048 2.037 2.037 0 01-.408-.115.543.543 0 01-.246-.153.4.4 0 00-.1-.06.45.45 0 01-.1-.053.185.185 0 00-.071-.032c-.063-.015-.087-.04-.084-.089s.038-.047.069-.006a.075.075 0 00.035.027.239.239 0 01.058.028.178.178 0 00.165.031.088.088 0 01.071-.006.579.579 0 00.25.037.287.287 0 01.237.076.1.1 0 00.063.037 1.329 1.329 0 01.276.105.432.432 0 00.154.033c.094.008.117.014.148.04a.156.156 0 00.174.03.389.389 0 01.113-.015c.071.011.123-.042.082-.082a.708.708 0 00-.228-.075.163.163 0 01-.077-.031.375.375 0 00-.1-.044 1.252 1.252 0 01-.272-.1.621.621 0 00-.1-.046l-.15-.05-.237-.08a2.609 2.609 0 00-.185-.057.137.137 0 01-.065-.031.1.1 0 00-.062-.022.711.711 0 01-.136-.035c-.163-.057-.184-.068-.189-.1a.092.092 0 00-.051-.058l-.046-.026.038-.034c.027-.024.046-.032.063-.025s.052.017.086.027c.188.054.437.138.52.175a.431.431 0 00.109.034.606.606 0 01.12.033c.044.016.134.046.2.067l.159.05c.137.046.178.055.21.043a.133.133 0 01.112.005.8.8 0 00.252.127.228.228 0 00.226-.014.257.257 0 01.071-.032.724.724 0 01.089.031c.248.1.385.122.425.075.017-.02.021-.02.1.007a3.112 3.112 0 00.309.087 1.074 1.074 0 01.146.045 1.5 1.5 0 00.3.09.247.247 0 01.088.031.279.279 0 00.092.033 2.2 2.2 0 00.238.036.887.887 0 01.147.035l.183.056c.24.07.289.086.384.121l.152.058c.046.02 1.52.516 1.657.562a1.126 1.126 0 00.147.035.329.329 0 01.116.037.489.489 0 00.128.049c.087.023.248.068.55.156.167.048.169.049.221.023.026-.013.048-.029.049-.035s-.068-.062-.135-.081l-.339-.1a1.877 1.877 0 01-.226-.074 1.22 1.22 0 00-.263-.076 1.651 1.651 0 01-.208-.06c-.05-.019-1.574-.533-1.615-.545a5.17 5.17 0 01-.461-.141.208.208 0 01-.081-.044c0-.016.021-.014.1.015.1.035.129.034.146 0s.017-.034.076-.014a.744.744 0 00.1.024.652.652 0 01.2.076c.028.015 1.518.517 1.538.519a.226.226 0 01.07.019.659.659 0 00.077.03c.067.022.195.06.269.081.037.01.092.029.122.041a.8.8 0 00.236.051.263.263 0 01.1.029.615.615 0 00.169.046.377.377 0 01.134.037.229.229 0 00.167.029c.016-.011.024-.009.041.013a.222.222 0 00.084.048.139.139 0 01.073.046.031.031 0 00.036.02.462.462 0 01.119.021.888.888 0 00.143.028.842.842 0 01.246.054 1.1 1.1 0 00.175.083 1.209 1.209 0 00.128.044c.041.012.134.042.208.067s.161.054.2.062a.647.647 0 01.1.037.683.683 0 00.249.079.628.628 0 01.184.049c.061.024.151.057.2.072a.783.783 0 01.136.055.216.216 0 00.067.029.2.2 0 01.067.03.213.213 0 00.076.031.143.143 0 01.052.015 1.679 1.679 0 00.326.113 1.073 1.073 0 01.133.047.514.514 0 00.139.037.266.266 0 01.09.02.631.631 0 00.106.038c.045.013.107.032.138.043a1.067 1.067 0 00.213.057c.012-.01-.043-.069-.068-.071a.1.1 0 01-.042-.014c-.012-.009-.006-.013.023-.018a.551.551 0 01.2.025 2.867 2.867 0 00.292.1 3.05 3.05 0 01.418.184c.032.02.07.064.083.066a.338.338 0 01.097.046.328.328 0 00.12.04.184.184 0 01.079.023.779.779 0 00.148.1 1.089 1.089 0 01.25.154 1.147 1.147 0 01.154.179.065.065 0 01-.025.043.033.033 0 00-.017.03c0 .016.012.025.044.031s.015.026.043.048c.191.15.129.329.191.346.047.006-.078.136-.087.19zM24.375 2.029a.689.689 0 01-.081-.025c-.042-.017-.05-.018-.061-.008s-.022.009-.076.01c-.006 0-.009.01-.008.021s.025.028.07.043a1.14 1.14 0 00.277.062c.012-.019-.072-.091-.121-.103zm-3.751 2.909c0-.015-.034-.015-.043 0a.014.014 0 00.005.019.026.026 0 00.038-.019zm.123 0a.074.074 0 00-.024-.011.076.076 0 00-.023.011c-.022.014-.007.039.023.039s.043-.026.022-.039zm.256-.01a.3.3 0 00-.179-.015c-.063.032-.025.052.093.05s.153-.015.084-.035zm.238.022s0-.011-.015-.015-.019-.005-.007.007.016.012.02.008zm.138-.033c-.011-.017-.056-.017-.085 0s-.015.036.026.036.067-.018.056-.04zm.6-.029c-.007-.021-.1-.022-.19 0l-.081.019a.751.751 0 00.112.012c.115.005.166-.006.156-.032zm.321.092a.026.026 0 00-.018-.013.027.027 0 00-.019.013c0 .007 0 .013.019.013s.019-.007.015-.014zm.366-.1a.492.492 0 00-.254.012c-.042.019-.046.025-.027.032a.305.305 0 00.1 0 .973.973 0 01.129-.008c.051-.003.079-.018.049-.037zm1.387-.155c-.01-.016-.052 0-.052.022s.046.016.055 0a.025.025 0 00-.006-.023zm.152.007c-.012-.019-.093-.012-.1.008s0 .022 0 .026.105-.023.098-.035zm-13.487.438c0-.007-.017-.013-.037-.013s-.037.006-.038.012.017.012.037.013.036-.006.036-.012zm7.677.656h-.8a.534.534 0 01-.131 0c-.052-.011-.423-.022-.978-.029a4.27 4.27 0 01-.355-.011c-.083-.016-.127.026-.067.063.019.012.022.02.012.031a.051.051 0 00-.014.03c0 .022.088.021.119 0a15.5 15.5 0 011.669-.017l.9.007a2.019 2.019 0 00.384-.029c.034-.039-.016-.042-.741-.046zm7.191 3.62c0-.018-.029-.015-.061.008s-.014.053.029.025c.016-.012.03-.027.03-.034zm.591-.335c-.018-.018-.082.017-.153.084s-.074.091-.029.09a.622.622 0 00.186-.144.029.029 0 00-.006-.028zm7.289-5.422c0-.019-.057-.029-.081-.016s-.013.013.008.026.077.014.071-.011zm-10.323 7.6c.033-.01.081-.052.071-.062s-.025 0-.048.016c-.053.03-.069.061-.025.048zm.194-.417a.023.023 0 00-.014.011.091.091 0 01-.044.02c-.046.01-.05.034 0 .029.02-.001.08-.058.056-.058zm.228-.138c0-.015-.026-.015-.049 0s-.015.015-.01.02.058-.003.058-.018zm.027-.038a.024.024 0 00-.012.026c0 .01.013.006.028-.011s.016-.032-.018-.012zm-.286.474a.091.091 0 00-.028.038c0 .022.036.012.05-.014s.007-.05-.024-.021zm.09-.037c.01 0 .019 0 .019-.009a.232.232 0 01.068-.046.183.183 0 00.074-.059.034.034 0 01.036-.022.128.128 0 00.064-.026.814.814 0 01.1-.061c.036-.019.065-.042.065-.052 0-.03-.06-.025-.118.01a.956.956 0 00-.069.045l-.121.092c-.115.084-.157.131-.12.131zm-.181-.18c.016-.019.009-.045-.013-.045s-.015.009-.02.02c-.012.031.013.051.032.028zM5.366 5.219c-.069-.015-.109-.014-.1 0a.156.156 0 00.079.011c.069.002.069.002.02-.009zm1.083.426c0 .007 0 .013.018.013s.026-.006.026-.012-.008-.013-.018-.013a.033.033 0 00-.027.015zm-.884-.381a.406.406 0 01.068-.008h.044l-.037-.01a.507.507 0 00-.093-.011c-.052 0-.055 0-.031.018a.067.067 0 00.048.014zm-.368.09a.156.156 0 00-.064-.008c-.024 0-.02.007.021.02a1.239 1.239 0 00.137.029 1 1 0 01.263.051.142.142 0 00.111 0c0-.008.013-.009.023 0a.321.321 0 00.106.013.98.98 0 01.172.02.745.745 0 00.131.019.081.081 0 01.073.028c.018.023.038.029.108.033a1.137 1.137 0 00.313-.008c0-.008.018-.008.044 0a1.228 1.228 0 00.189.018c.082 0 .172.009.2.012l.125.012.21.02a.78.78 0 00.168 0c.038-.011.026-.013-.322-.049a1.424 1.424 0 01-.219-.033.352.352 0 00-.1-.017.813.813 0 01-.112-.013c-.011 0-.082-.013-.158-.02a1.451 1.451 0 01-.324-.047.251.251 0 00-.16-.016.2.2 0 01-.105 0 7.196 7.196 0 00-.531-.057.827.827 0 01-.131-.017c-.071-.018-.076-.017-.1 0a.055.055 0 01-.069.013zm-.425.114c-.007 0 .011.011.04.015a.127.127 0 01.06.019.831.831 0 00.244.035c.041 0 .09.008.108.011a.063.063 0 00.041 0c.013-.013-.144-.066-.192-.065a.593.593 0 01-.1-.013.461.461 0 00-.202.001zm.266-.279c.008 0 0-.006-.016-.006s-.024 0-.015.006a.047.047 0 00.03.003zm.264.453c.021.01.032.01.043 0s0-.015-.028-.014-.043.004-.016.017zm-.394-.748c-.016 0-.022 0-.015.012s.08.03.08.016-.03-.025-.066-.025zm.177.3c0 .007.012.014.028.014l.084.005c.069.005.032-.011-.053-.024-.039-.003-.059-.002-.059.007zm-.319-.038a.723.723 0 00.177.039c.061 0 .012-.022-.08-.037s-.133-.015-.097 0zm1.128.415c-.075 0-.093 0-.1-.013a.075.075 0 00-.045-.013c-.025 0-.018.007.037.035a.383.383 0 00.112.038c.024 0 .088.01.143.017a1.625 1.625 0 00.38.009c0-.018-.044-.033-.125-.042s-.372-.029-.402-.029zm-.287-.038c0 .006.024.012.052.012.062 0 .06-.006-.005-.016-.03-.003-.047-.001-.047.006z" fill="#333"/></svg>