<svg xmlns="http://www.w3.org/2000/svg" width="1234.6" height="37.7" overflow="visible"><path d="M0 24.6c24.5 2.9 45.7.9 65.9 1.3 4.5.1 7.7 1.7 11.6 1.2 5.9-.7 9.1-4.3 14.7-5.2 23-3.7 45.2 1.1 62.3 3.8 9.5-7.8 41.4-1.9 55.4-7 22.5 5.7 53-.2 81.1 3.6 8.1-4.4 24-4.2 27.5 1-1.3-5.9 26.6-3.7 33.4-.5-1.1 1.3-7.1-.4-5.9 2.2 19.5 2.8 33.4 1.7 53.5 3.5 3.3-3.9 17.5-8.8 26.3-4-.2 3.2-11.8-.6-10.3 3.7 57.3 2.4 116.4 1.3 172.6 2.8 20.9.6 41.1 1.4 56.6.4 25.7-1.7 52.3 3 76.8 2.7 9.8-.1 18.3-4.4 27.7-4.7 7.6-.2 15.8 2.2 23.1 2.4 5.4.2 10.4-1.1 16-1.1 12.2 0 20.6 3.7 33.2 5.2 29.4 3.6 61.2 0 87-.2 82.9-.7 170.9-3.6 251.4-10.7 1.4 1.4 6.1 1.1 8.6 1.9 10.9-1 31.7-4.7 40.8-5.1 8.2-.3 16.2 2.5 24.6 2.5h.7V0H0v24.6z" fill="#fff"/></svg>