<svg xmlns="http://www.w3.org/2000/svg" width="24.617" height="20"><path data-name="Twitter Icon" d="M16.448 0H17.6l.422.084A4.511 4.511 0 0118.79.3a5.447 5.447 0 01.666.311 6.333 6.333 0 01.584.362 3.593 3.593 0 01.466.386.646.646 0 00.637.107 8.521 8.521 0 00.932-.277q.5-.178.988-.4t.595-.282l.111-.067V.433L23.8.422l.022-.011L23.84.4l.022-.011V.382h.014V.375l.031-.015h.022v.033l-.007.033-.011.033-.011.029-.011.022-.011.022-.011.033a.772.772 0 00-.022.089 3.723 3.723 0 01-.211.444 5.552 5.552 0 01-.5.788 3.875 3.875 0 01-.537.6q-.24.206-.317.289a.953.953 0 01-.189.155l-.111.073-.022.011-.022.011v.007h-.014v.007l-.022.011-.022.011v.007h-.014v.014h-.014v.007h.111l.622-.133a11.122 11.122 0 001.188-.322l.6-.2.067-.022.033-.011.022-.011.022-.011.022-.011.022-.011.044-.007h.044v.07h-.011l-.011.007v.007h-.014v.014h-.014v.014h-.007l-.011.022-.011.022h-.007l-.282.377a3.12 3.12 0 01-.3.377q-.022.007-.062.067a6.361 6.361 0 01-.471.5 11.172 11.172 0 01-.848.77 1.051 1.051 0 00-.422.835q-.007.493-.051 1.114t-.166 1.343a16.011 16.011 0 01-.377 1.632 14.833 14.833 0 01-.622 1.776 13.835 13.835 0 01-.766 1.554q-.4.688-.733 1.165t-.677.9q-.344.422-.87.95t-.577.577q-.051.049-.435.364t-.821.635a9.5 9.5 0 01-.8.526q-.366.211-.883.482a10.511 10.511 0 01-1.114.506q-.6.233-1.265.433a11.557 11.557 0 01-1.287.311q-.622.111-1.41.189l-.788.078V20H7.037v-.011l-.189-.011q-.189-.011-.311-.022t-.921-.122q-.8-.111-1.254-.222t-1.354-.422a13.175 13.175 0 01-1.538-.628q-.637-.315-.8-.4t-.36-.2l-.2-.122v-.007H.096v-.007L.067 17.8l-.022-.011v-.007H.031v-.014H0v-.044h.022l.022.007.1.011q.1.011.544.033t.943 0a9.926 9.926 0 001.021-.1 11.5 11.5 0 001.233-.275 9.1 9.1 0 001.305-.448q.593-.262.844-.391a8.213 8.213 0 00.759-.471l.511-.344v-.007h.014v-.014h.014v-.007l.038-.018h.022v-.022l.007-.022h.007v-.007l-.178-.011-.336-.038a3.337 3.337 0 01-.522-.1 5.007 5.007 0 01-.766-.266 5.9 5.9 0 01-.8-.422 3.933 3.933 0 01-.562-.406q-.171-.16-.444-.453a4.491 4.491 0 01-.471-.606 5.445 5.445 0 01-.382-.717l-.184-.4-.009-.03-.011-.033-.007-.022v-.022h.033l.033.007.244.033a5.426 5.426 0 00.766.022 5.93 5.93 0 00.721-.044q.2-.033.244-.044l.044-.011.055-.011.055-.011v-.007h.014v-.007l-.044-.011-.044-.011-.044-.011L4.772 12l-.044-.011q-.044-.011-.155-.044t-.6-.244a4.583 4.583 0 01-.777-.411 5.365 5.365 0 01-.55-.437 6.282 6.282 0 01-.57-.617 4.44 4.44 0 01-.555-.877 5.332 5.332 0 01-.367-.959 5.153 5.153 0 01-.16-.921l-.04-.466h.022L1 7.026l.022.011.022.011.022.011.022.011.344.155a4.341 4.341 0 00.855.266q.511.111.61.122l.1.011h.2v-.007h-.014v-.014h-.014v-.007l-.039-.027-.022-.011v-.007h-.014v-.007l-.022-.011-.022-.011v-.007l-.191-.142A2.911 2.911 0 012.464 7q-.2-.222-.4-.466a3.6 3.6 0 01-.355-.522 6.323 6.323 0 01-.329-.706 5.011 5.011 0 01-.26-.859 4.89 4.89 0 01-.1-.855 5.381 5.381 0 01.022-.721 4.715 4.715 0 01.134-.671 5.275 5.275 0 01.289-.8l.189-.423.011-.034.011-.033h.007V.896h.014V.91h.014v.014h.007l.011.022.011.022h.007v.007l.3.333q.3.333.71.744a4.174 4.174 0 00.455.426.325.325 0 01.111.1 4.531 4.531 0 00.444.393q.377.311.988.721t1.354.81a13.212 13.212 0 001.6.721q.855.322 1.2.422t1.176.255q.832.155 1.254.2t.577.051h.155v-.033l.016-.018-.044-.277A5.216 5.216 0 0112 5.05a5.094 5.094 0 01.078-.921 5.457 5.457 0 01.233-.855 4.565 4.565 0 01.3-.695 6.834 6.834 0 01.4-.593 4.786 4.786 0 01.629-.686 4.668 4.668 0 01.888-.633 5.772 5.772 0 01.922-.423 4.292 4.292 0 01.71-.189A2.469 2.469 0 0016.448 0z" fill="#f9b32a"/></svg>