<svg xmlns="http://www.w3.org/2000/svg" width="28.913" height="20"><path data-name="Path 9126" d="M15.097 19.975l-5.932-.109a30.966 30.966 0 01-5.729-.354C.572 18.927.369 16.058.156 13.651A41.116 41.116 0 01.529 3.467 3.482 3.482 0 013.964.339 189.809 189.809 0 0123.203.155a13.881 13.881 0 012.02.241c3.284.576 3.365 3.827 3.578 6.564a37.215 37.215 0 01-.283 8.291c-.326 2.274-.949 4.181-3.578 4.365-3.294.241-6.512.435-9.816.373.001-.014-.018-.014-.027-.014zm-3.487-5.757c2.482-1.425 4.917-2.827 7.385-4.242-2.487-1.425-4.917-2.827-7.385-4.242z" fill="#f9b32a"/></svg>